<?xml version="1.0" encoding="utf-8"?>
<!-- Generator: Adobe Illustrator 25.1.0, SVG Export Plug-In . SVG Version: 6.00 Build 0)  -->
<svg version="1.1" id="Layer_1" xmlns="http://www.w3.org/2000/svg" xmlns:xlink="http://www.w3.org/1999/xlink" x="0px" y="0px"
	 viewBox="0 0 275 32" style="enable-background:new 0 0 275 32;" xml:space="preserve">
<style type="text/css">
	.st0{fill:#FFFFFF;}
</style>
<path class="st0" d="M21.41,6.81c-1.89,3.51-1.53,6.76-1.53,11.87c0,14.51,17.23,16.3,22.28,6.63c1.85-3.54,1.51-6.65,1.51-11.87
	C43.68-1.03,26.51-2.67,21.41,6.81z M38.77,18.47c0,5.53-3.18,8.26-7.01,8.26c-7.52,0-6.97-7.68-6.97-13.08
	c0-4.65,2.61-8.26,7.01-8.26C39.33,5.39,38.77,13.14,38.77,18.47z M131.24,1.35h-8.35c-0.14,0-0.27,0.07-0.35,0.19L109.3,21.62
	c-0.05,0.08-0.18,0.09-0.23,0c-0.43-0.63-2.51-3.83-13.29-20.08c-0.08-0.12-0.22-0.2-0.36-0.2l-8.12,0c-0.23,0-0.42,0.19-0.42,0.42
	v28.77c0,0.16,0.13,0.28,0.28,0.28h6.32c0.16,0,0.28-0.13,0.28-0.28l-0.08-17.79c0-0.28,0.35-0.39,0.51-0.16
	c0.97,1.41,3.83,5.62,12.35,18.11c0.05,0.08,0.14,0.13,0.24,0.13c0.73,0,3.89,0,4.61,0c0.09,0,0.18-0.05,0.23-0.12l12.42-18.18
	c0.16-0.23,0.51-0.12,0.51,0.16c0,1.55-0.03,5.85-0.03,17.86c0,0.16,0.13,0.29,0.28,0.29h6.45c0.16,0,0.28-0.13,0.28-0.28V1.63
	C131.52,1.47,131.4,1.35,131.24,1.35z M16.47,1.35H0.77c-0.16,0-0.28,0.13-0.28,0.28v28.91c0,0.16,0.13,0.28,0.28,0.28h3.27
	c0.16,0,0.28-0.13,0.28-0.28V18.62c0-0.16,0.13-0.28,0.28-0.28h10.92c0.16,0,0.28-0.13,0.28-0.28v-2.92c0-0.16-0.13-0.28-0.28-0.28
	H4.6c-0.16,0-0.28-0.13-0.28-0.28V5.16C4.31,5,4.44,4.87,4.6,4.87h11.87c0.16,0,0.28-0.13,0.28-0.28V1.63
	C16.75,1.47,16.62,1.35,16.47,1.35z M82.3,30.22c-1.82-1.11-6.86-4.14-16.18-9.5c-0.12-0.07-0.08-0.26,0.07-0.26h6.1
	c8.42,0,11.92-8.47,8.52-14.52c-3.42-6.06-9.19-4.59-32.84-4.58c-0.16,0-0.28,0.13-0.28,0.28l0,28.91c0,0.16,0.13,0.28,0.28,0.28
	h6.58c0.16,0,0.28-0.13,0.28-0.28v-9.59c0-0.22,0.23-0.35,0.42-0.24c2.43,1.44,14.57,8.64,16.71,9.92c0.22,0.13,0.46,0.19,0.71,0.19
	c4.64,0,7.97-0.06,9.5-0.09C82.44,30.72,82.54,30.36,82.3,30.22z M55.1,15.42c-0.15,0-0.28-0.13-0.28-0.28V7.65
	c0-0.16,0.13-0.28,0.28-0.28c14.38-0.02,19.85-1.26,19.85,4C74.95,16.89,67.71,15.44,55.1,15.42z M273.45,1.35h-2.77
	c-0.23,0-0.42,0.19-0.42,0.42l0.04,20.85c0,0.21-0.29,0.29-0.39,0.09L259.13,1.86c-0.16-0.31-0.48-0.51-0.84-0.51h-2.4
	c-0.52,0-0.94,0.42-0.94,0.94v28.1c0,0.23,0.19,0.42,0.42,0.42h2.68c0.23,0,0.42-0.19,0.42-0.42V9.6c0-0.29,0.4-0.39,0.53-0.13
	l10.78,20.83c0.16,0.31,0.49,0.51,0.84,0.51h2.62c0.35,0,0.63-0.28,0.63-0.63V1.77C273.88,1.54,273.69,1.35,273.45,1.35z
	 M228.9,6.81c-1.89,3.51-1.53,6.76-1.53,11.87c0,14.51,17.23,16.3,22.28,6.63c1.85-3.54,1.51-6.65,1.51-11.87
	C251.16-1.03,234-2.67,228.9,6.81z M246.26,18.47c0,5.53-3.18,8.26-7.01,8.26c-7.52,0-6.97-7.68-6.97-13.08
	c0-4.65,2.61-8.26,7.01-8.26C246.81,5.39,246.26,13.14,246.26,18.47z M223.03,1.35h-6.3c-0.23,0-0.42,0.19-0.42,0.42v28.62
	c0,0.23,0.19,0.42,0.42,0.42h6.3c0.23,0,0.42-0.19,0.42-0.42V1.77C223.46,1.54,223.27,1.35,223.03,1.35z M167.64,2.72
	c-4.44-2.55-7.83-2.07-16.54-2.07c-16.4,0-21.48,21.09-8.04,28.69c4.43,2.51,7.94,2.02,16.52,2.02
	C176.14,31.38,181.17,10.51,167.64,2.72z M158.84,23.8c-7.26,0-8.72,0.29-10.93-1.03c-6.43-3.86-3.99-14.41,3.92-14.41
	c7.24,0,8.62-0.3,10.82,1.03C169.17,13.36,166.65,23.8,158.84,23.8z M212.37,1.35h-34.95c-0.23,0-0.42,0.19-0.42,0.42v5.18
	c0,0.23,0.19,0.42,0.42,0.42H191c0.16,0,0.28,0.13,0.28,0.28v22.74c0,0.23,0.19,0.42,0.42,0.42h6.34c0.23,0,0.42-0.19,0.42-0.42
	V7.65c0-0.16,0.13-0.28,0.28-0.28h13.62c0.23,0,0.42-0.19,0.42-0.42V1.77C212.79,1.54,212.6,1.35,212.37,1.35z"/>
</svg>
