<svg id="Layer_1" data-name="Layer 1" xmlns="http://www.w3.org/2000/svg" viewBox="0 0 156.96 18.51"><path d="M13.62,13.05a5.22,5.22,0,0,1-.52,2.39,4.91,4.91,0,0,1-1.44,1.76,6.47,6.47,0,0,1-2.18,1.09,9.51,9.51,0,0,1-2.72.38A12.42,12.42,0,0,1,3,18.14a7.4,7.4,0,0,1-3-1.92l2.34-2.34a4.76,4.76,0,0,0,2,1.23,8.68,8.68,0,0,0,2.42.33,4.23,4.23,0,0,0,2.47-.59,2,2,0,0,0,.83-1.72,2.07,2.07,0,0,0-.57-1.53,1.74,1.74,0,0,0-.63-.39,4.89,4.89,0,0,0-1-.24l-2.21-.34a8.19,8.19,0,0,1-2.1-.55,5.21,5.21,0,0,1-1.49-1A4.82,4.82,0,0,1,.73,5.46a5.74,5.74,0,0,1,.44-2.27A4.89,4.89,0,0,1,2.44,1.42a5.93,5.93,0,0,1,2-1.16A8.16,8.16,0,0,1,7.18-.16a10.23,10.23,0,0,1,3.35.5A7.08,7.08,0,0,1,13.16,2L10.87,4.26A3.92,3.92,0,0,0,9,3.21,8.93,8.93,0,0,0,7.07,3a2.91,2.91,0,0,0-2.14.69,2.25,2.25,0,0,0-.69,1.65,2.33,2.33,0,0,0,.11.7,1.67,1.67,0,0,0,.41.63,2.63,2.63,0,0,0,.69.44,3.54,3.54,0,0,0,1,.26l2.21.34a8.68,8.68,0,0,1,2.1.52,4.12,4.12,0,0,1,1.43.93,3.88,3.88,0,0,1,1.1,1.67A7,7,0,0,1,13.62,13.05Z"/><path d="M30.81,18.51V10.76H24.54v7.75H20.93V0h3.61V7.57h6.27V0h3.61V18.51Z"/><path d="M55.69,9.26c0,.88,0,1.68,0,2.39a11.62,11.62,0,0,1-.22,2,6.54,6.54,0,0,1-.56,1.65,5.51,5.51,0,0,1-1.08,1.46,6.68,6.68,0,0,1-2.13,1.44,7.12,7.12,0,0,1-2.81.51A7.24,7.24,0,0,1,46,18.16a6.73,6.73,0,0,1-2.14-1.44,5.51,5.51,0,0,1-1.08-1.46,6.53,6.53,0,0,1-.55-1.65,14.19,14.19,0,0,1-.21-2c0-.71,0-1.51,0-2.39s0-1.68,0-2.4a14.19,14.19,0,0,1,.21-2,6.53,6.53,0,0,1,.55-1.65,5.67,5.67,0,0,1,1.08-1.46A6.73,6.73,0,0,1,46,.35a7.24,7.24,0,0,1,2.82-.51,7.12,7.12,0,0,1,2.81.51,6.68,6.68,0,0,1,2.13,1.44,5.67,5.67,0,0,1,1.08,1.46,6.54,6.54,0,0,1,.56,1.65,11.62,11.62,0,0,1,.22,2C55.68,7.58,55.69,8.37,55.69,9.26Zm-3.61,0c0-.89,0-1.62,0-2.2a13.35,13.35,0,0,0-.16-1.44,4,4,0,0,0-.27-.93,3,3,0,0,0-.43-.63,2.87,2.87,0,0,0-1-.72,3.14,3.14,0,0,0-1.34-.27,3.08,3.08,0,0,0-2.34,1,3,3,0,0,0-.43.63,4,4,0,0,0-.27.93,10,10,0,0,0-.14,1.44c0,.58,0,1.31,0,2.2s0,1.61,0,2.19a9.7,9.7,0,0,0,.14,1.43,3.68,3.68,0,0,0,.27.91,2.87,2.87,0,0,0,.43.64,3.35,3.35,0,0,0,1,.73,3.12,3.12,0,0,0,3.66-.73,2.87,2.87,0,0,0,.43-.64,3.68,3.68,0,0,0,.27-.91A12.84,12.84,0,0,0,52,11.45C52.06,10.87,52.08,10.14,52.08,9.26Z"/><path d="M76.57,5.77A6,6,0,0,1,76.15,8,5.35,5.35,0,0,1,75,9.84,5.42,5.42,0,0,1,73,11.09a7,7,0,0,1-2.57.45H66.9v7H63.28V0h7.18A6.76,6.76,0,0,1,73,.46a5.29,5.29,0,0,1,3.12,3.09A5.92,5.92,0,0,1,76.57,5.77ZM73,5.77a2.44,2.44,0,0,0-.72-1.84,2.68,2.68,0,0,0-2-.71H66.9V8.29h3.38a2.71,2.71,0,0,0,2-.69A2.39,2.39,0,0,0,73,5.77Z"/><path d="M104.39,18.51,97.06,7.15V18.51H93.44V0h3.23L104,11.34V0h3.61V18.51Z"/><path d="M128.88,9.26c0,.88,0,1.68,0,2.39a11.62,11.62,0,0,1-.22,2,6.54,6.54,0,0,1-.56,1.65A5.51,5.51,0,0,1,127,16.72a6.68,6.68,0,0,1-2.13,1.44,7.12,7.12,0,0,1-2.81.51,7.24,7.24,0,0,1-2.82-.51,6.73,6.73,0,0,1-2.14-1.44A5.51,5.51,0,0,1,116,15.26a6.16,6.16,0,0,1-.55-1.65,14.19,14.19,0,0,1-.21-2c0-.71,0-1.51,0-2.39s0-1.68,0-2.4a14.19,14.19,0,0,1,.21-2A6.16,6.16,0,0,1,116,3.25a5.67,5.67,0,0,1,1.08-1.46A6.73,6.73,0,0,1,119.22.35,7.24,7.24,0,0,1,122-.16a7.12,7.12,0,0,1,2.81.51A6.68,6.68,0,0,1,127,1.79a5.67,5.67,0,0,1,1.08,1.46,6.54,6.54,0,0,1,.56,1.65,11.62,11.62,0,0,1,.22,2C128.87,7.58,128.88,8.37,128.88,9.26Zm-3.61,0c0-.89,0-1.62-.06-2.2a11.44,11.44,0,0,0-.15-1.44,4,4,0,0,0-.27-.93,3,3,0,0,0-.43-.63,2.87,2.87,0,0,0-1-.72A3.14,3.14,0,0,0,122,3.07a3.08,3.08,0,0,0-2.34,1,3,3,0,0,0-.43.63,4,4,0,0,0-.27.93,10,10,0,0,0-.14,1.44c0,.58,0,1.31,0,2.2s0,1.61,0,2.19a9.7,9.7,0,0,0,.14,1.43,3.68,3.68,0,0,0,.27.91,2.87,2.87,0,0,0,.43.64,3.35,3.35,0,0,0,1,.73,3.12,3.12,0,0,0,3.66-.73,2.87,2.87,0,0,0,.43-.64,3.68,3.68,0,0,0,.27-.91,11.06,11.06,0,0,0,.15-1.43Q125.27,10.58,125.27,9.26Z"/><path d="M152,18.51h-3L145.57,7.28l-3.4,11.23h-3L134.21,0H138l2.86,11.67L144.22,0h2.7l3.39,11.67L153.19,0H157Z"/></svg>