<?xml version="1.0" encoding="utf-8"?>
<!-- Generator: Adobe Illustrator 25.1.0, SVG Export Plug-In . SVG Version: 6.00 Build 0)  -->
<svg version="1.1" id="Layer_1" xmlns="http://www.w3.org/2000/svg" xmlns:xlink="http://www.w3.org/1999/xlink" x="0px" y="0px"
	 viewBox="0 0 275 50" style="enable-background:new 0 0 275 50;" xml:space="preserve">
<style type="text/css">
	.st0{fill:#FFFFFF;}
</style>
<g>
	<path class="st0" d="M11.17,10.1c0,0.66-0.14,1.24-0.4,1.74c-0.27,0.51-0.64,0.93-1.12,1.28c-0.48,0.35-1.04,0.61-1.7,0.8
		c-0.65,0.18-1.36,0.27-2.11,0.27c-1.09,0-2.06-0.13-2.92-0.39c-0.86-0.26-1.63-0.72-2.33-1.39L2.4,10.7
		c0.46,0.43,0.98,0.73,1.58,0.89c0.59,0.16,1.22,0.25,1.88,0.25c0.85,0,1.49-0.15,1.92-0.44c0.43-0.29,0.65-0.71,0.65-1.25
		c0-0.47-0.15-0.84-0.44-1.12C7.83,8.91,7.67,8.81,7.49,8.75C7.32,8.69,7.05,8.63,6.69,8.58L4.97,8.33
		C4.32,8.25,3.78,8.11,3.33,7.93C2.89,7.74,2.5,7.51,2.18,7.21C1.49,6.6,1.15,5.71,1.15,4.56c0-0.61,0.11-1.16,0.34-1.66
		c0.23-0.5,0.56-0.93,0.99-1.29c0.43-0.36,0.96-0.64,1.58-0.84c0.62-0.2,1.32-0.3,2.1-0.3c1,0,1.87,0.12,2.61,0.36
		c0.74,0.24,1.42,0.64,2.04,1.21L9.03,3.69C8.58,3.29,8.1,3.03,7.57,2.92c-0.53-0.11-1.02-0.16-1.5-0.16c-0.75,0-1.31,0.17-1.67,0.5
		C4.06,3.6,3.88,4,3.88,4.47c0,0.18,0.03,0.35,0.09,0.51C4.03,5.14,4.13,5.3,4.28,5.43c0.15,0.13,0.33,0.23,0.54,0.32
		c0.21,0.09,0.47,0.15,0.78,0.19l1.72,0.25c0.66,0.09,1.21,0.21,1.64,0.38c0.43,0.16,0.8,0.39,1.11,0.68
		c0.39,0.33,0.67,0.73,0.85,1.21S11.17,9.49,11.17,10.1z"/>
	<path class="st0" d="M25.29,9.45c0,0.72-0.14,1.37-0.41,1.95c-0.28,0.58-0.65,1.08-1.13,1.49c-0.48,0.41-1.04,0.73-1.68,0.96
		c-0.64,0.23-1.33,0.34-2.07,0.34c-0.74,0-1.43-0.11-2.07-0.34c-0.64-0.23-1.2-0.55-1.68-0.96c-0.48-0.41-0.86-0.91-1.13-1.49
		c-0.28-0.58-0.41-1.23-0.41-1.95V0.58h2.81v8.77c0,0.78,0.22,1.39,0.67,1.83c0.44,0.44,1.05,0.65,1.82,0.65
		c0.77,0,1.38-0.22,1.83-0.65c0.45-0.44,0.68-1.05,0.68-1.83V0.58h2.79V9.45z"/>
	<path class="st0" d="M39.85,4.79c0,0.57-0.11,1.11-0.32,1.62c-0.22,0.51-0.53,0.96-0.93,1.35c-0.4,0.39-0.9,0.69-1.49,0.91
		C36.51,8.89,35.85,9,35.11,9h-2.77v5.08h-2.81V0.58h5.57c0.74,0,1.41,0.11,2,0.33c0.59,0.22,1.09,0.52,1.49,0.91
		c0.4,0.39,0.71,0.83,0.93,1.35C39.75,3.68,39.85,4.22,39.85,4.79z M37.05,4.79c0-0.56-0.19-1-0.56-1.35
		c-0.37-0.34-0.88-0.51-1.53-0.51h-2.63v3.69h2.63c0.65,0,1.15-0.17,1.53-0.5C36.86,5.79,37.05,5.35,37.05,4.79z"/>
	<path class="st0" d="M53.65,4.79c0,0.57-0.11,1.11-0.32,1.62c-0.22,0.51-0.53,0.96-0.93,1.35c-0.4,0.39-0.9,0.69-1.49,0.91
		C50.31,8.89,49.64,9,48.9,9h-2.77v5.08h-2.81V0.58h5.57c0.74,0,1.41,0.11,2,0.33c0.59,0.22,1.09,0.52,1.49,0.91
		c0.4,0.39,0.71,0.83,0.93,1.35C53.54,3.68,53.65,4.22,53.65,4.79z M50.84,4.79c0-0.56-0.19-1-0.56-1.35
		c-0.37-0.34-0.88-0.51-1.53-0.51h-2.63v3.69h2.63c0.65,0,1.15-0.17,1.53-0.5C50.66,5.79,50.84,5.35,50.84,4.79z"/>
	<path class="st0" d="M67.27,7.33c0,0.64-0.01,1.23-0.03,1.74c-0.02,0.52-0.08,0.99-0.17,1.43c-0.09,0.44-0.24,0.84-0.43,1.2
		c-0.2,0.37-0.48,0.72-0.84,1.06c-0.48,0.45-1.04,0.81-1.66,1.05c-0.62,0.25-1.35,0.37-2.18,0.37c-0.84,0-1.57-0.12-2.19-0.37
		c-0.63-0.25-1.18-0.6-1.67-1.05c-0.36-0.34-0.64-0.69-0.84-1.06c-0.2-0.37-0.34-0.77-0.42-1.2c-0.09-0.44-0.14-0.91-0.16-1.43
		c-0.02-0.52-0.03-1.1-0.03-1.74c0-0.64,0.01-1.23,0.03-1.74c0.02-0.52,0.07-0.99,0.16-1.43c0.09-0.44,0.23-0.84,0.42-1.2
		c0.2-0.37,0.47-0.72,0.84-1.06c0.48-0.45,1.04-0.81,1.67-1.05c0.63-0.25,1.36-0.37,2.19-0.37c0.83,0,1.56,0.12,2.18,0.37
		c0.62,0.25,1.17,0.6,1.66,1.05c0.36,0.34,0.64,0.69,0.84,1.06c0.2,0.37,0.34,0.77,0.43,1.2c0.09,0.44,0.15,0.91,0.17,1.43
		C67.26,6.1,67.27,6.68,67.27,7.33z M64.46,7.33c0-0.64-0.01-1.18-0.04-1.6c-0.03-0.42-0.07-0.77-0.12-1.05S64.17,4.17,64.08,4
		c-0.09-0.17-0.2-0.33-0.33-0.46c-0.2-0.21-0.45-0.39-0.76-0.52c-0.3-0.13-0.65-0.2-1.04-0.2s-0.74,0.07-1.04,0.2
		c-0.3,0.13-0.56,0.31-0.78,0.52C60,3.68,59.89,3.83,59.8,4c-0.09,0.17-0.16,0.4-0.21,0.67S59.5,5.3,59.48,5.73
		c-0.02,0.42-0.03,0.96-0.03,1.6c0,0.64,0.01,1.18,0.03,1.6s0.06,0.77,0.11,1.04c0.05,0.27,0.12,0.49,0.21,0.66
		c0.09,0.17,0.2,0.33,0.33,0.46c0.22,0.21,0.47,0.39,0.78,0.53c0.3,0.14,0.65,0.21,1.04,0.21s0.74-0.07,1.04-0.21
		c0.3-0.14,0.56-0.32,0.76-0.53c0.13-0.14,0.25-0.29,0.33-0.46c0.09-0.17,0.16-0.39,0.21-0.66c0.05-0.27,0.09-0.62,0.12-1.04
		C64.44,8.51,64.46,7.97,64.46,7.33z"/>
	<path class="st0" d="M78.88,14.07l-2.81-5.38h-2.02v5.38h-2.81V0.58h5.64c0.73,0,1.38,0.11,1.96,0.33
		c0.58,0.22,1.07,0.52,1.47,0.89c0.4,0.37,0.71,0.81,0.92,1.31c0.21,0.5,0.31,1.03,0.31,1.6c0,0.48-0.07,0.91-0.21,1.29
		C81.19,6.38,81,6.72,80.76,7.02c-0.24,0.3-0.52,0.55-0.84,0.76c-0.32,0.21-0.65,0.37-1,0.48l3.21,5.82H78.88z M78.74,4.71
		c0-0.53-0.19-0.96-0.56-1.29c-0.37-0.33-0.87-0.49-1.48-0.49h-2.65V6.5h2.65c0.62,0,1.11-0.16,1.48-0.49
		C78.55,5.67,78.74,5.24,78.74,4.71z"/>
	<path class="st0" d="M90.76,2.93v11.14h-2.81V2.93h-3.76V0.58h10.32v2.35H90.76z"/>
	<path class="st0" d="M109.2,2.93v11.14h-2.81V2.93h-3.76V0.58h10.32v2.35H109.2z"/>
	<path class="st0" d="M126.09,7.33c0,0.64-0.01,1.23-0.03,1.74c-0.02,0.52-0.08,0.99-0.17,1.43c-0.09,0.44-0.24,0.84-0.43,1.2
		c-0.2,0.37-0.48,0.72-0.84,1.06c-0.48,0.45-1.04,0.81-1.66,1.05c-0.62,0.25-1.35,0.37-2.18,0.37c-0.84,0-1.57-0.12-2.19-0.37
		c-0.63-0.25-1.18-0.6-1.67-1.05c-0.36-0.34-0.64-0.69-0.84-1.06c-0.2-0.37-0.34-0.77-0.42-1.2c-0.09-0.44-0.14-0.91-0.16-1.43
		c-0.02-0.52-0.03-1.1-0.03-1.74c0-0.64,0.01-1.23,0.03-1.74c0.02-0.52,0.07-0.99,0.16-1.43c0.09-0.44,0.23-0.84,0.42-1.2
		c0.2-0.37,0.47-0.72,0.84-1.06c0.48-0.45,1.04-0.81,1.67-1.05c0.63-0.25,1.36-0.37,2.19-0.37c0.83,0,1.56,0.12,2.18,0.37
		c0.62,0.25,1.17,0.6,1.66,1.05c0.36,0.34,0.64,0.69,0.84,1.06c0.2,0.37,0.34,0.77,0.43,1.2c0.09,0.44,0.15,0.91,0.17,1.43
		C126.08,6.1,126.09,6.68,126.09,7.33z M123.28,7.33c0-0.64-0.01-1.18-0.04-1.6c-0.03-0.42-0.07-0.77-0.12-1.05s-0.12-0.5-0.21-0.67
		s-0.2-0.33-0.33-0.46c-0.2-0.21-0.45-0.39-0.76-0.52c-0.3-0.13-0.65-0.2-1.04-0.2s-0.74,0.07-1.04,0.2
		c-0.3,0.13-0.56,0.31-0.78,0.52c-0.13,0.14-0.25,0.29-0.33,0.46c-0.09,0.17-0.16,0.4-0.21,0.67s-0.09,0.63-0.11,1.05
		c-0.02,0.42-0.03,0.96-0.03,1.6c0,0.64,0.01,1.18,0.03,1.6s0.06,0.77,0.11,1.04c0.05,0.27,0.12,0.49,0.21,0.66
		c0.09,0.17,0.2,0.33,0.33,0.46c0.22,0.21,0.47,0.39,0.78,0.53c0.3,0.14,0.65,0.21,1.04,0.21s0.74-0.07,1.04-0.21
		c0.3-0.14,0.56-0.32,0.76-0.53c0.13-0.14,0.25-0.29,0.33-0.46c0.09-0.17,0.16-0.39,0.21-0.66c0.05-0.27,0.09-0.62,0.12-1.04
		S123.28,7.97,123.28,7.33z"/>
	<path class="st0" d="M146.09,14.07V6.21l-2.75,5.12h-1.9l-2.77-5.12v7.86h-2.81V0.58h2.77l3.76,7.3l3.74-7.3h2.77v13.49H146.09z"/>
	<path class="st0" d="M163.5,7.33c0,0.64-0.01,1.23-0.03,1.74c-0.02,0.52-0.08,0.99-0.17,1.43c-0.09,0.44-0.24,0.84-0.43,1.2
		c-0.19,0.37-0.47,0.72-0.84,1.06c-0.49,0.45-1.04,0.81-1.66,1.05c-0.62,0.25-1.35,0.37-2.18,0.37c-0.84,0-1.57-0.12-2.19-0.37
		c-0.63-0.25-1.18-0.6-1.67-1.05c-0.36-0.34-0.64-0.69-0.84-1.06c-0.19-0.37-0.34-0.77-0.42-1.2c-0.09-0.44-0.14-0.91-0.16-1.43
		c-0.02-0.52-0.03-1.1-0.03-1.74c0-0.64,0.01-1.23,0.03-1.74c0.02-0.52,0.07-0.99,0.16-1.43c0.09-0.44,0.23-0.84,0.42-1.2
		c0.2-0.37,0.47-0.72,0.84-1.06c0.48-0.45,1.04-0.81,1.67-1.05c0.63-0.25,1.36-0.37,2.19-0.37c0.83,0,1.56,0.12,2.18,0.37
		c0.62,0.25,1.17,0.6,1.66,1.05c0.36,0.34,0.64,0.69,0.84,1.06c0.2,0.37,0.34,0.77,0.43,1.2c0.09,0.44,0.15,0.91,0.17,1.43
		C163.49,6.1,163.5,6.68,163.5,7.33z M160.69,7.33c0-0.64-0.01-1.18-0.04-1.6c-0.03-0.42-0.07-0.77-0.12-1.05
		c-0.06-0.28-0.12-0.5-0.21-0.67c-0.09-0.17-0.2-0.33-0.33-0.46c-0.2-0.21-0.45-0.39-0.76-0.52c-0.3-0.13-0.65-0.2-1.04-0.2
		c-0.39,0-0.74,0.07-1.04,0.2c-0.3,0.13-0.56,0.31-0.78,0.52c-0.13,0.14-0.25,0.29-0.33,0.46c-0.09,0.17-0.16,0.4-0.21,0.67
		c-0.05,0.28-0.09,0.63-0.11,1.05c-0.02,0.42-0.03,0.96-0.03,1.6c0,0.64,0.01,1.18,0.03,1.6c0.02,0.42,0.06,0.77,0.11,1.04
		c0.05,0.27,0.12,0.49,0.21,0.66c0.09,0.17,0.2,0.33,0.33,0.46c0.22,0.21,0.47,0.39,0.78,0.53c0.3,0.14,0.65,0.21,1.04,0.21
		c0.39,0,0.74-0.07,1.04-0.21c0.3-0.14,0.56-0.32,0.76-0.53c0.13-0.14,0.24-0.29,0.33-0.46c0.09-0.17,0.16-0.39,0.21-0.66
		c0.05-0.27,0.09-0.62,0.12-1.04C160.68,8.51,160.69,7.97,160.69,7.33z"/>
	<path class="st0" d="M172.51,14.07h-2.1l-4.75-13.49h2.91l2.89,8.79l2.89-8.79h2.93L172.51,14.07z"/>
	<path class="st0" d="M180.12,14.07V0.58h9.47v2.35h-6.67V6.1h5.68v2.35h-5.68v3.28h6.67v2.35H180.12z"/>
	<path class="st0" d="M202.06,2.93v3.32h5.68V8.6h-5.68v5.48h-2.81V0.58h9.47v2.35H202.06z"/>
	<path class="st0" d="M219.92,14.07l-2.81-5.38h-2.02v5.38h-2.81V0.58h5.64c0.73,0,1.38,0.11,1.96,0.33
		c0.58,0.22,1.07,0.52,1.47,0.89c0.4,0.37,0.71,0.81,0.92,1.31c0.21,0.5,0.31,1.03,0.31,1.6c0,0.48-0.07,0.91-0.21,1.29
		c-0.14,0.38-0.33,0.72-0.57,1.01c-0.24,0.3-0.52,0.55-0.84,0.76c-0.32,0.21-0.65,0.37-1,0.48l3.21,5.82H219.92z M219.78,4.71
		c0-0.53-0.19-0.96-0.56-1.29c-0.37-0.33-0.87-0.49-1.48-0.49h-2.65V6.5h2.65c0.62,0,1.11-0.16,1.48-0.49
		C219.59,5.67,219.78,5.24,219.78,4.71z"/>
	<path class="st0" d="M226.6,14.07V0.58h9.47v2.35h-6.67V6.1h5.68v2.35h-5.68v3.28h6.67v2.35H226.6z"/>
	<path class="st0" d="M239.93,14.07V0.58h9.47v2.35h-6.67V6.1h5.68v2.35h-5.68v3.28h6.67v2.35H239.93z"/>
	<path class="st0" d="M253.27,14.07V0.58h2.81v11.14h6.52v2.35H253.27z"/>
	<path class="st0" d="M269.87,8.54v5.53h-2.79V8.54l-4.32-7.96h3.05l2.69,5.44l2.65-5.44h3.05L269.87,8.54z"/>
</g>
</svg>
